Coordinates
version=1
nRows=21
nColumns=12
inDegrees=yes

Units are S.I. units (second, meters, Newtons, ...)
Angles are in degrees

endheader
time	SC_y	SC_z	SC_x	AC_y	AC_z	AC_x	GH_y	GH_z	GH_yy	EL_x	PS_y
       0.0              -32.88           14.4          45.07          66.75         -12.19         -1.843          37.97          27.04         -10.55          128.7          76.54
    0.0196              -32.88           14.4          45.07          66.75         -12.19         -1.845          37.98          27.04         -10.56          128.7          76.54
   0.03919              -32.88           14.4          45.07          66.75         -12.19         -1.846          37.99          27.04         -10.58          128.6          76.54
   0.05879              -32.87           14.4          45.06          66.75         -12.19         -1.847           38.0          27.04          -10.6          128.6          76.54
   0.07839              -32.87           14.4          45.06          66.75         -12.19         -1.849          38.01          27.03         -10.62          128.6          76.54
   0.09798              -32.86           14.4          45.06          66.75         -12.19          -1.85          38.02          27.03         -10.65          128.6          76.54
    0.1176              -32.86           14.4          45.06          66.75         -12.18         -1.852          38.03          27.03         -10.67          128.6          76.54
    0.1372              -32.86           14.4          45.06          66.75         -12.18         -1.853          38.04          27.02          -10.7          128.6          76.54
    0.1568              -32.85           14.4          45.06          66.75         -12.18         -1.855          38.06          27.02         -10.72          128.5          76.54
    0.1764              -32.85           14.4          45.06          66.75         -12.18         -1.857          38.07          27.02         -10.75          128.5          76.53
     0.196              -32.84           14.4          45.05          66.75         -12.17         -1.859          38.09          27.01         -10.78          128.5          76.53
    0.2156              -32.83           14.4          45.05          66.75         -12.17         -1.862           38.1          27.01         -10.82          128.5          76.53
    0.2352              -32.83           14.4          45.05          66.75         -12.17         -1.864          38.12           27.0         -10.85          128.4          76.53
    0.2548              -32.82           14.4          45.05          66.75         -12.16         -1.867          38.14           27.0         -10.89          128.4          76.53
    0.2744              -32.81          14.41          45.04          66.75         -12.16          -1.87          38.16          26.99         -10.94          128.4          76.53
    0.2939               -32.8          14.41          45.04          66.75         -12.16         -1.873          38.18          26.98         -10.98          128.3          76.53
    0.3135               -32.8          14.41          45.04          66.75         -12.15         -1.876          38.21          26.98         -11.03          128.3          76.53
    0.3331              -32.79          14.41          45.03          66.76         -12.15          -1.88          38.23          26.97         -11.09          128.3          76.52
    0.3527              -32.78          14.41          45.03          66.76         -12.14         -1.884          38.26          26.96         -11.15          128.2          76.52
    0.3723              -32.76          14.41          45.03          66.76         -12.14         -1.888           38.3          26.95         -11.21          128.2          76.52
    0.3919              -32.75          14.41          45.02          66.76         -12.13         -1.893          38.33          26.94         -11.29          128.1          76.52
